<svg xmlns="http://www.w3.org/2000/svg" height="48" viewBox="0 96 960 960" width="48"><path d="M857 1000 106 251l43-43 750 750-42 42ZM300 731v-60h312l60 60H300Zm-97-125v-60h60v60h-60Zm124 0v-60h60v60h-60Zm370 0v-60h60v60h-60ZM203 481v-60h60v60h-60Zm371 0v-60h60v60h-60Zm123 0v-60h60v60h-60Zm165 355-42-43V356H383l-60-60h497q24 0 42 18t18 42v438q0 12-5 23t-13 19Zm-722 20q-24 0-42-18.5T80 796V356q0-24 18-42t42-18h97l60 60H140v440h597l60 60H140Zm308-435h62l-2 60-60-60Zm125 125h61l-2 60-59-60Zm-141 30Zm169-2Z"/></svg>